<?xml version="1.0" encoding="UTF-8" standalone="no"?>
<!-- Created with Inkscape (http://www.inkscape.org/) -->

<svg
   xmlns:dc="http://purl.org/dc/elements/1.1/"
   xmlns:cc="http://creativecommons.org/ns#"
   xmlns:rdf="http://www.w3.org/1999/02/22-rdf-syntax-ns#"
   xmlns:svg="http://www.w3.org/2000/svg"
   xmlns="http://www.w3.org/2000/svg"
   xmlns:sodipodi="http://sodipodi.sourceforge.net/DTD/sodipodi-0.dtd"
   xmlns:inkscape="http://www.inkscape.org/namespaces/inkscape"
   version="1.1"
   id="svg108075"
   xml:space="preserve"
   width="800"
   height="800"
   viewBox="0 0 800 800"
   sodipodi:docname="tractor-color-outline-publicdomainvectors.org.svg"
   inkscape:version="0.92.4 (5da689c313, 2019-01-14)"><metadata
     id="metadata108081"><rdf:RDF><cc:Work
         rdf:about=""><dc:format>image/svg+xml</dc:format><dc:type
           rdf:resource="http://purl.org/dc/dcmitype/StillImage" /><dc:title></dc:title></cc:Work></rdf:RDF></metadata><defs
     id="defs108079"><clipPath
       clipPathUnits="userSpaceOnUse"
       id="clipPath108091"><path
         d="M 0,600 H 600 V 0 H 0 Z"
         id="path108089"
         inkscape:connector-curvature="0" /></clipPath></defs><sodipodi:namedview
     pagecolor="#ffffff"
     bordercolor="#666666"
     borderopacity="1"
     objecttolerance="10"
     gridtolerance="10"
     guidetolerance="10"
     inkscape:pageopacity="0"
     inkscape:pageshadow="2"
     inkscape:window-width="797"
     inkscape:window-height="480"
     id="namedview108077"
     showgrid="false"
     inkscape:zoom="0.295"
     inkscape:cx="400"
     inkscape:cy="400"
     inkscape:window-x="-8"
     inkscape:window-y="-8"
     inkscape:window-maximized="1"
     inkscape:current-layer="g108083" /><g
     id="g108083"
     inkscape:groupmode="layer"
     inkscape:label="tractor-color-outline-publicdomainvectors.org"
     transform="matrix(1.3333333,0,0,-1.3333333,0,800)"><g
       id="g108085"><g
         id="g108087"
         clip-path="url(#clipPath108091)"><path
           d="m 174.657,526.368 v -15.062 -15.052 h 16.173 16.172 l -0.252,-1.757 c -0.061,-0.426 -0.423,-4.111 -0.981,-9.935 l 8.644,41.986 z"
           style="fill:#b52c24;fill-opacity:1;fill-rule:nonzero;stroke:none"
           id="path108093"
           inkscape:connector-curvature="0" /><path
           d="m 270.841,496.199 6.768,-0.014 9.179,30.683 c -8.362,-0.032 -17.234,-0.069 -26.648,-0.113 l -6.279,-0.028 z"
           style="fill:#a08aab;fill-opacity:1;fill-rule:nonzero;stroke:none"
           id="path108095"
           inkscape:connector-curvature="0" /><path
           d="m 371.021,495.982 3.105,-1.256 c 0.015,-0.007 0.03,-0.014 0.045,-0.02 l -2.9,32.215 c -8.417,0.049 -18.418,0.073 -30.202,0.071 l 21.34,-30.991 z"
           style="fill:#314ea9;fill-opacity:1;fill-rule:nonzero;stroke:none"
           id="path108097"
           inkscape:connector-curvature="0" /><path
           d="m 447.162,491.278 c -3.74,9.876 -9.801,19.306 -15.74,24.274 -6.074,5.08 -12.838,8.233 -22.01,10.262 -0.755,0.168 -2.147,0.316 -4.278,0.446 l 33.891,-56.117 z"
           style="fill:#305ab1;fill-opacity:1;fill-rule:nonzero;stroke:none"
           id="path108099"
           inkscape:connector-curvature="0" /><path
           d="m 388.301,475.279 50.724,-5.136 -33.891,56.117 c -5.591,0.341 -16.271,0.558 -33.863,0.661 l 2.9,-32.215 c 6.748,-2.748 11.908,-9.87 14.13,-19.427"
           style="fill:#3669bb;fill-opacity:1;fill-rule:nonzero;stroke:none"
           id="path108101"
           inkscape:connector-curvature="0" /><path
           d="m 303.904,496.128 58.505,-0.127 -21.34,30.991 c -15.046,-0.002 -33.002,-0.044 -54.281,-0.124 l -9.179,-30.683 z"
           style="fill:#579bcc;fill-opacity:1;fill-rule:nonzero;stroke:none"
           id="path108103"
           inkscape:connector-curvature="0" /><path
           d="m 452.464,469.803 c -1.66,9.443 -2.667,13.51 -4.025,17.804 -0.385,1.226 -0.815,2.451 -1.277,3.671 l -8.137,-21.135 z"
           style="fill:#3063b8;fill-opacity:1;fill-rule:nonzero;stroke:none"
           id="path108105"
           inkscape:connector-curvature="0" /><path
           d="m 236.787,495.168 v 1.105 l 34.054,-0.074 -16.98,30.528 -39.448,-0.179 -8.644,-41.986 c -0.38,-3.964 -0.85,-8.92 -1.378,-14.516 l 30.848,7.939 c 0.945,10.175 1.548,16.843 1.548,17.183"
           style="fill:#ac9072;fill-opacity:1;fill-rule:nonzero;stroke:none"
           id="path108107"
           inkscape:connector-curvature="0" /><path
           d="m 463.23,401.428 -2.31,14.981 -17.358,-12.152 z"
           style="fill:#3573c2;fill-opacity:1;fill-rule:nonzero;stroke:none"
           id="path108109"
           inkscape:connector-curvature="0" /><path
           d="m 443.562,404.257 17.358,12.152 -1.509,9.792 c -3.371,21.871 -5.432,34.978 -6.947,43.602 l -13.439,0.34 z"
           style="fill:#377eca;fill-opacity:1;fill-rule:nonzero;stroke:none"
           id="path108111"
           inkscape:connector-curvature="0" /><path
           d="m 235.239,477.985 -30.848,-7.939 c -0.034,-0.354 -0.067,-0.71 -0.101,-1.069 l 29.032,-11.476 c 0.719,7.632 1.374,14.637 1.917,20.484"
           style="fill:#9dcb7d;fill-opacity:1;fill-rule:nonzero;stroke:none"
           id="path108113"
           inkscape:connector-curvature="0" /><path
           d="m 257.811,415.512 c -0.84,0.436 -2.499,0.795 -3.692,0.795 -4.178,0 -7.997,-5.202 -6.658,-9.055 0.147,-0.42 0.768,-1.46 1.656,-2.812 l 13.19,5.919 c -2.428,3.073 -4.015,4.905 -4.496,5.153"
           style="fill:#baca56;fill-opacity:1;fill-rule:nonzero;stroke:none"
           id="path108115"
           inkscape:connector-curvature="0" /><path
           d="m 234.388,397.831 c -3.403,2.171 -5.96,3.923 -6.055,4.171 -0.117,0.302 1.737,21.138 4.12,46.301 0.297,3.14 0.588,6.217 0.869,9.198 l -29.032,11.476 c -0.664,-7.03 -1.413,-15.004 -2.186,-23.255 l -1.547,-63.072 z"
           style="fill:#baca56;fill-opacity:1;fill-rule:nonzero;stroke:none"
           id="path108117"
           inkscape:connector-curvature="0" /><path
           d="m 394.88,407.543 48.682,-3.286 -4.537,65.886 -45.329,-47.597 c 0.367,-4.593 0.76,-9.584 1.184,-15.003"
           style="fill:#3f98da;fill-opacity:1;fill-rule:nonzero;stroke:none"
           id="path108119"
           inkscape:connector-curvature="0" /><path
           d="m 393.696,422.546 45.329,47.597 -50.724,5.136 c 0.096,-0.417 0.19,-0.837 0.276,-1.264 1.209,-6.032 2.502,-18.75 5.119,-51.469"
           style="fill:#3e8cd2;fill-opacity:1;fill-rule:nonzero;stroke:none"
           id="path108121"
           inkscape:connector-curvature="0" /><path
           d="m 202.104,445.722 c -2.153,-23.003 -4.485,-48.146 -5.642,-60.906 l 4.095,-2.166 z"
           style="fill:#ce5e20;fill-opacity:1;fill-rule:nonzero;stroke:none"
           id="path108123"
           inkscape:connector-curvature="0" /><path
           d="m 237.9,305.028 83.492,30.409 -120.835,47.213 z"
           style="fill:#cae548;fill-opacity:1;fill-rule:nonzero;stroke:none"
           id="path108125"
           inkscape:connector-curvature="0" /><path
           d="m 467.188,357 c 2.704,-1.057 6.103,-2.594 9.706,-4.362 l 19.569,16.162 c -7.73,4.445 -16.289,8.553 -25.242,12.075 l -5.133,2.019 -2.858,18.534 -19.668,2.829 z"
           style="fill:#3c8ad1;fill-opacity:1;fill-rule:nonzero;stroke:none"
           id="path108127"
           inkscape:connector-curvature="0" /><path
           d="m 314.551,373.661 6.841,-38.224 30.807,38.194 h -12.291 c -9.084,0 -17.692,0.011 -25.357,0.03"
           style="fill:#81d5d3;fill-opacity:1;fill-rule:nonzero;stroke:none"
           id="path108129"
           inkscape:connector-curvature="0" /><path
           d="m 263.61,373.631 h -8.37 l -1.189,1.916 c -0.651,1.058 -1.097,1.99 -0.99,2.073 1.703,1.324 9.938,6.812 10.219,6.812 0.213,0 1.882,-2.052 3.707,-4.565 1.825,-2.514 3.692,-4.94 4.153,-5.401 0.753,-0.753 0.01,-0.835 -7.53,-0.835 m 18.555,0.286 h -0.005 c 0,0.16 0.393,0.893 0.878,1.63 0.612,0.942 0.806,2.107 0.631,3.907 -0.224,2.349 -1.272,3.955 -12.291,18.92 -3.643,4.943 -6.743,9.036 -9.071,11.985 l -13.19,-5.919 c 0.957,-1.454 2.223,-3.267 3.546,-5.058 2.557,-3.454 4.644,-6.472 4.639,-6.7 -0.015,-0.228 -2.057,-1.811 -4.552,-3.519 l -4.531,-3.11 -1.592,2.567 c -1.35,2.174 -2.864,3.358 -9.836,7.696 -0.832,0.517 -1.638,1.027 -2.403,1.515 l -33.831,-15.181 120.835,-47.213 -6.841,38.224 c -19.139,0.047 -32.386,0.145 -32.386,0.256"
           style="fill:#a2da66;fill-opacity:1;fill-rule:nonzero;stroke:none"
           id="path108131"
           inkscape:connector-curvature="0" /><path
           d="m 93.547,352.183 c -1.991,-1.747 -3.607,-3.726 -5.028,-6.022 -1.388,-2.251 -5.149,-11.339 -5.149,-12.455 0,-0.335 5.003,-0.598 13.281,-0.694 l 13.286,-0.165 1.3,-1.514 c 1.505,-1.751 1.669,-4.09 0.568,-8.209 -1.8,-6.74 -7.079,-14.869 -12.651,-19.478 -4.779,-3.959 -9.713,-6.27 -17.943,-8.405 -3.717,-0.961 -6.808,-1.78 -6.871,-1.814 -0.027,-0.016 -0.102,-0.257 -0.216,-0.687 l 80.553,2.418 z"
           style="fill:#dc2a24;fill-opacity:1;fill-rule:nonzero;stroke:none"
           id="path108133"
           inkscape:connector-curvature="0" /><path
           d="m 394.88,407.543 c 0.141,-1.804 0.283,-3.65 0.433,-5.551 0.092,-1.195 0.184,-2.378 0.275,-3.542 l 56.866,-37.578 c 3.748,-0.697 7.497,-1.597 11.474,-2.734 0.9,-0.258 2.009,-0.647 3.26,-1.138 l -23.626,47.257 z"
           style="fill:#419ddc;fill-opacity:1;fill-rule:nonzero;stroke:none"
           id="path108135"
           inkscape:connector-curvature="0" /><path
           d="m 460.133,342.643 c -4.789,1.444 -9.74,2.617 -14.843,3.504 -5.551,0.966 -26.406,0.971 -32.408,0.005 -18.176,-2.915 -35.17,-10.272 -49.521,-21.006 l -6.759,-33.189 z"
           style="fill:#4cbaed;fill-opacity:1;fill-rule:nonzero;stroke:none"
           id="path108137"
           inkscape:connector-curvature="0" /><path
           d="m 397.427,375.655 0.228,-2.024 h -24.42 l -5.381,-26.429 c 4.398,2.419 9.066,4.616 14.142,6.685 15.779,6.425 28.832,8.938 46.417,8.938 9.188,0 16.61,-0.574 24.041,-1.953 l -56.866,37.578 c 0.925,-11.862 1.724,-21.78 1.839,-22.795"
           style="fill:#4cbaed;fill-opacity:1;fill-rule:nonzero;stroke:none"
           id="path108139"
           inkscape:connector-curvature="0" /><path
           d="m 151.771,368.296 c -10.893,-1.844 -20.772,-3.553 -25.19,-4.384 -17.663,-3.325 -27.044,-6.475 -33.034,-11.729 l 61.13,-57.025 z"
           style="fill:#da2f24;fill-opacity:1;fill-rule:nonzero;stroke:none"
           id="path108141"
           inkscape:connector-curvature="0" /><path
           d="m 200.557,382.65 -4.095,2.166 c -0.462,-5.097 -0.736,-8.22 -0.736,-8.438 0,-0.815 -0.345,-1.126 -1.247,-1.126 -0.983,0 -23.432,-3.69 -42.708,-6.956 l 2.906,-73.138 z"
           style="fill:#db561e;fill-opacity:1;fill-rule:nonzero;stroke:none"
           id="path108143"
           inkscape:connector-curvature="0" /><path
           d="m 352.199,373.631 -30.807,-38.194 12.791,-15.795 c 2.244,2.54 4.651,5.065 7.262,7.625 8.505,8.341 16.822,14.665 26.409,19.935 l 5.381,26.429 z"
           style="fill:#77d3e8;fill-opacity:1;fill-rule:nonzero;stroke:none"
           id="path108145"
           inkscape:connector-curvature="0" /><path
           d="m 363.361,325.146 c -7.025,-5.256 -13.416,-11.322 -19.001,-18.071 l 12.242,-15.118 z"
           style="fill:#77d3e8;fill-opacity:1;fill-rule:nonzero;stroke:none"
           id="path108147"
           inkscape:connector-curvature="0" /><path
           d="m 487.916,346.832 21.872,-1.883 0.591,0.592 7.93,7.938 -4.232,3.421 c -5.093,4.11 -11.055,8.126 -17.614,11.9 l -19.569,-16.162 c 3.646,-1.79 7.493,-3.812 11.022,-5.806"
           style="fill:#3772c2;fill-opacity:1;fill-rule:nonzero;stroke:none"
           id="path108149"
           inkscape:connector-curvature="0" /><path
           d="m 200.557,382.65 -45.88,-87.492 83.223,9.87 z"
           style="fill:#e17c18;fill-opacity:1;fill-rule:nonzero;stroke:none"
           id="path108151"
           inkscape:connector-curvature="0" /><path
           d="M 298.985,264.75 321.392,335.437 237.9,305.028 Z"
           style="fill:#cde766;fill-opacity:1;fill-rule:nonzero;stroke:none"
           id="path108153"
           inkscape:connector-curvature="0" /><path
           d="m 393.34,265.36 c 6.579,8.281 15.984,14.37 26.37,16.528 11.77,2.446 24.552,0.121 33.926,-6.162 1.974,-1.324 3.797,-2.713 5.478,-4.176 l 10.976,67.593 c -3.234,1.302 -6.553,2.472 -9.957,3.5 L 356.602,291.957 Z"
           style="fill:#53c6f3;fill-opacity:1;fill-rule:nonzero;stroke:none"
           id="path108155"
           inkscape:connector-curvature="0" /><path
           d="m 495.705,342.106 6.745,-4.508 7.338,7.351 -21.872,1.883 c 2.913,-1.645 5.607,-3.27 7.789,-4.726"
           style="fill:#3668bb;fill-opacity:1;fill-rule:nonzero;stroke:none"
           id="path108157"
           inkscape:connector-curvature="0" /><path
           d="m 486.067,331.179 44.699,-52.603 c -4.531,11.044 -10.949,21.497 -19.183,31.044 -7.37,8.546 -15.933,15.761 -25.516,21.559"
           style="fill:#3668bb;fill-opacity:1;fill-rule:nonzero;stroke:none"
           id="path108159"
           inkscape:connector-curvature="0" /><path
           d="M 470.09,339.143 459.114,271.55 c 6.806,-5.92 11.278,-13.059 13.848,-22.007 1.515,-5.269 1.705,-17.013 0.462,-22.88 l 65.366,9.626 c 0.196,14.598 -2.523,28.879 -8.024,42.287 l -44.699,52.603 c -5.048,3.053 -10.382,5.711 -15.977,7.964"
           style="fill:#3c7ec9;fill-opacity:1;fill-rule:nonzero;stroke:none"
           id="path108161"
           inkscape:connector-curvature="0" /><path
           d="m 356.602,291.957 28.713,-42.123 c 1.589,5.654 4.37,10.928 8.025,15.526 z"
           style="fill:#94dacb;fill-opacity:1;fill-rule:nonzero;stroke:none"
           id="path108163"
           inkscape:connector-curvature="0" /><path
           d="m 154.677,295.158 67.486,-34.143 15.737,44.013 z"
           style="fill:#ec8115;fill-opacity:1;fill-rule:nonzero;stroke:none"
           id="path108165"
           inkscape:connector-curvature="0" /><path
           d="m 298.985,264.75 8.203,3.874 c 1.929,7.555 4.692,14.913 8.419,22.658 5.294,11.011 10.995,19.779 18.576,28.36 l -12.791,15.795 z"
           style="fill:#b3e2a9;fill-opacity:1;fill-rule:nonzero;stroke:none"
           id="path108167"
           inkscape:connector-curvature="0" /><path
           d="m 344.36,307.075 c -5.113,-6.179 -9.552,-12.929 -13.181,-20.16 -1.479,-2.94 -2.805,-5.885 -3.992,-8.849 l 29.415,13.891 z"
           style="fill:#b3e2a9;fill-opacity:1;fill-rule:nonzero;stroke:none"
           id="path108169"
           inkscape:connector-curvature="0" /><path
           d="m 66.082,255.55 c 0,-0.46 1.251,0.253 3.109,1.766 8.695,7.092 19.17,12.511 30.373,15.754 l -27.993,8.632 C 69.169,270.901 66.082,256.417 66.082,255.55"
           style="fill:#e93421;fill-opacity:1;fill-rule:nonzero;stroke:none"
           id="path108171"
           inkscape:connector-curvature="0" /><path
           d="m 142.253,258.5 c -24.097,7.787 -50.653,1.393 -68.408,-16.468 -0.446,-0.449 -0.882,-0.901 -1.312,-1.357 l 85.237,10.387 c -4.497,2.735 -11.588,6.164 -15.517,7.438"
           style="fill:#e93421;fill-opacity:1;fill-rule:nonzero;stroke:none"
           id="path108173"
           inkscape:connector-curvature="0" /><path
           d="m 74.124,292.74 c -0.428,-1.617 -1.413,-5.912 -2.553,-11.038 l 27.993,-8.632 c 1.965,0.571 3.953,1.074 5.957,1.505 6.56,1.418 25.285,1.443 31.87,0.034 9.516,-2.026 18.369,-5.545 26.31,-10.362 l -9.024,30.911 z"
           style="fill:#e93621;fill-opacity:1;fill-rule:nonzero;stroke:none"
           id="path108175"
           inkscape:connector-curvature="0" /><path
           d="m 154.677,295.158 9.024,-30.911 c 4.922,-2.986 9.493,-6.472 13.654,-10.41 l 44.808,7.178 z"
           style="fill:#ed6c18;fill-opacity:1;fill-rule:nonzero;stroke:none"
           id="path108177"
           inkscape:connector-curvature="0" /><path
           d="m 222.163,261.015 76.822,3.735 -61.085,40.278 z"
           style="fill:#e6e131;fill-opacity:1;fill-rule:nonzero;stroke:none"
           id="path108179"
           inkscape:connector-curvature="0" /><path
           d="m 128.525,167.226 9.079,-6.24 4.794,14.768 c -3.669,-4.123 -8.515,-7.095 -13.873,-8.528"
           style="fill:#ec551b;fill-opacity:1;fill-rule:nonzero;stroke:none"
           id="path108181"
           inkscape:connector-curvature="0" /><path
           d="m 93.638,193.964 c 0,8.487 2.713,14.917 8.661,20.524 6.139,5.794 11.365,7.6 21.011,7.27 5.444,-0.184 6.041,-0.321 10.073,-2.31 7.487,-3.687 13.562,-11.097 15.304,-18.673 0.259,-1.125 0.425,-2.556 0.501,-4.1 L 165.1,245.7 c -1.783,1.508 -3.656,2.935 -5.621,4.27 -0.509,0.345 -1.085,0.712 -1.709,1.092 L 72.533,240.675 C 65.62,233.359 60.576,225.043 57.518,216.021 l 36.28,-24.931 c -0.102,0.949 -0.16,1.907 -0.16,2.874"
           style="fill:#ec551b;fill-opacity:1;fill-rule:nonzero;stroke:none"
           id="path108183"
           inkscape:connector-curvature="0" /><path
           d="m 327.187,278.066 c -4.704,-11.743 -7.159,-23.778 -7.602,-37.049 -0.577,-17.439 2.19,-31.69 9.313,-47.832 l 27.704,98.772 z"
           style="fill:#cae879;fill-opacity:1;fill-rule:nonzero;stroke:none"
           id="path108185"
           inkscape:connector-curvature="0" /><path
           d="m 304.055,249.287 c 0.532,6.796 1.551,13.134 3.133,19.337 l -8.203,-3.874 z"
           style="fill:#cae879;fill-opacity:1;fill-rule:nonzero;stroke:none"
           id="path108187"
           inkscape:connector-curvature="0" /><path
           d="m 384.966,226.532 c -1.377,5.567 -1.241,17.498 0.263,23.006 0.026,0.099 0.059,0.196 0.086,0.296 l -28.713,42.123 -27.704,-98.772 c 0.168,-0.382 0.336,-0.763 0.508,-1.148 1.044,-2.309 2.165,-4.574 3.36,-6.793 l 61.095,23.694 c -4.188,5.125 -7.298,11.124 -8.895,17.594"
           style="fill:#bee7b1;fill-opacity:1;fill-rule:nonzero;stroke:none"
           id="path108189"
           inkscape:connector-curvature="0" /><path
           d="m 65.529,156.525 72.075,4.461 -9.079,6.24 c -4.445,-1.19 -9.244,-1.32 -14.018,-0.163 -11.091,2.683 -19.484,12.618 -20.709,24.027 l -36.28,24.931 c -2.302,-6.792 -3.482,-13.985 -3.48,-21.455 0,-11.375 2.076,-20.313 7.06,-30.502 1.246,-2.549 2.741,-5.078 4.431,-7.539"
           style="fill:#eb501c;fill-opacity:1;fill-rule:nonzero;stroke:none"
           id="path108191"
           inkscape:connector-curvature="0" /><path
           d="m 473.182,225.653 c -1.401,-5.046 -3.666,-9.757 -6.608,-13.964 l 50.969,-39.081 c 8.198,11.14 14.293,23.767 17.66,36.961 2.282,8.939 3.468,17.887 3.587,26.72 l -65.366,-9.626 c -0.075,-0.358 -0.155,-0.696 -0.242,-1.01"
           style="fill:#69b6c7;fill-opacity:1;fill-rule:nonzero;stroke:none"
           id="path108193"
           inkscape:connector-curvature="0" /><path
           d="m 209.31,189.432 h 48.686 54.976 l -0.751,1.485 h 0.008 c -0.283,0.56 -0.691,1.594 -1.166,2.909 l -88.9,67.189 z"
           style="fill:#f2d40a;fill-opacity:1;fill-rule:nonzero;stroke:none"
           id="path108195"
           inkscape:connector-curvature="0" /><path
           d="m 222.163,261.015 88.9,-67.189 c -1.503,4.175 -3.666,11.208 -4.558,15.055 -2.059,8.859 -2.898,17.06 -2.898,28.355 0,4.205 0.147,8.202 0.448,12.051 l -5.07,15.463 z"
           style="fill:#e9ed1d;fill-opacity:1;fill-rule:nonzero;stroke:none"
           id="path108197"
           inkscape:connector-curvature="0" /><path
           d="m 172.074,238.866 16.871,-46.335 c 0.377,16.916 -5.609,33.555 -16.871,46.335"
           style="fill:#f19811;fill-opacity:1;fill-rule:nonzero;stroke:none"
           id="path108199"
           inkscape:connector-curvature="0" /><path
           d="m 177.355,253.837 c 6.891,-6.522 12.655,-14.285 17.022,-23.082 6.065,-12.219 8.462,-21.696 8.574,-33.895 l 0.068,-7.428 h 6.291 l 12.853,71.583 z"
           style="fill:#f19811;fill-opacity:1;fill-rule:nonzero;stroke:none"
           id="path108201"
           inkscape:connector-curvature="0" /><path
           d="m 148.469,187.098 c -1.131,-4.34 -3.255,-8.18 -6.071,-11.344 l -4.794,-14.768 40.057,-4.252 c 2.485,3.702 4.607,7.664 6.312,11.848 3.175,7.788 4.794,15.899 4.972,23.949 l -16.871,46.335 c -2.137,2.424 -4.464,4.711 -6.974,6.834 l -15.912,-49.025 c 0.164,-3.315 -0.087,-7.145 -0.719,-9.577"
           style="fill:#f08c13;fill-opacity:1;fill-rule:nonzero;stroke:none"
           id="path108203"
           inkscape:connector-curvature="0" /><path
           d="m 406.707,197.985 c -4.9,2.84 -9.267,6.577 -12.846,10.953 l -61.095,-23.694 c 0.652,-1.214 1.327,-2.414 2.024,-3.598 l 68.491,-7.323 z"
           style="fill:#bde370;fill-opacity:1;fill-rule:nonzero;stroke:none"
           id="path108205"
           inkscape:connector-curvature="0" /><path
           d="m 454.938,200.079 6.228,-39.892 45.243,-0.494 c 4.037,4.013 7.765,8.336 11.134,12.915 l -50.969,39.081 c -3.168,-4.531 -7.123,-8.471 -11.636,-11.61"
           style="fill:#83d297;fill-opacity:1;fill-rule:nonzero;stroke:none"
           id="path108207"
           inkscape:connector-curvature="0" /><path
           d="m 419.495,192.984 c -4.517,0.989 -8.825,2.704 -12.788,5.001 l -3.426,-23.662 17.958,18.356 c -0.635,0.089 -1.222,0.19 -1.744,0.305"
           style="fill:#94d78e;fill-opacity:1;fill-rule:nonzero;stroke:none"
           id="path108209"
           inkscape:connector-curvature="0" /><path
           d="m 421.239,192.679 -17.958,-18.356 57.885,-14.136 -6.228,39.892 c -4.926,-3.428 -10.513,-5.903 -16.47,-7.134 -4.266,-0.883 -12.256,-0.966 -17.229,-0.266"
           style="fill:#93d67f;fill-opacity:1;fill-rule:nonzero;stroke:none"
           id="path108211"
           inkscape:connector-curvature="0" /><path
           d="m 368.094,146.264 c 8.135,-5.479 17.043,-9.899 26.518,-13.076 2.084,-0.696 4.522,-1.379 7.171,-2.018 l 1.498,43.153 z"
           style="fill:#e4d526;fill-opacity:1;fill-rule:nonzero;stroke:none"
           id="path108213"
           inkscape:connector-curvature="0" /><path
           d="m 334.79,181.646 c 8.334,-14.175 19.747,-26.251 33.304,-35.382 l 35.187,28.059 z"
           style="fill:#e8ed25;fill-opacity:1;fill-rule:nonzero;stroke:none"
           id="path108215"
           inkscape:connector-curvature="0" /><path
           d="m 65.529,156.525 c 6.529,-9.51 16.033,-18.034 25.935,-22.982 12.402,-6.191 29.289,-8.424 42.85,-5.658 2.408,0.49 4.77,1.105 7.084,1.838 l -3.794,31.263 z"
           style="fill:#ec5c1a;fill-opacity:1;fill-rule:nonzero;stroke:none"
           id="path108217"
           inkscape:connector-curvature="0" /><path
           d="m 403.281,174.323 -1.498,-43.153 c 3.992,-0.964 8.472,-1.83 12.987,-2.489 5.548,-0.812 18.547,-1.003 25.324,-0.421 l 21.072,31.927 z"
           style="fill:#b8e057;fill-opacity:1;fill-rule:nonzero;stroke:none"
           id="path108219"
           inkscape:connector-curvature="0" /><path
           d="m 475.799,138.107 c 6.669,3.188 13.095,7.133 19.46,11.92 3.933,2.957 7.657,6.196 11.15,9.666 l -45.243,0.494 z"
           style="fill:#a9be8b;fill-opacity:1;fill-rule:nonzero;stroke:none"
           id="path108221"
           inkscape:connector-curvature="0" /><path
           d="m 460.109,132.136 c 5.424,1.572 10.627,3.552 15.69,5.971 l -14.633,22.08 z"
           style="fill:#b5b654;fill-opacity:1;fill-rule:nonzero;stroke:none"
           id="path108223"
           inkscape:connector-curvature="0" /><path
           d="m 440.094,128.26 c 0.514,0.044 0.995,0.092 1.43,0.143 6.528,0.791 12.687,2.023 18.585,3.733 l 1.057,28.051 z"
           style="fill:#c5c33d;fill-opacity:1;fill-rule:nonzero;stroke:none"
           id="path108225"
           inkscape:connector-curvature="0" /><path
           d="m 141.398,129.723 c 14.923,4.717 27.733,14.314 36.263,27.011 l -40.057,4.252 z"
           style="fill:#ef7b15;fill-opacity:1;fill-rule:nonzero;stroke:none"
           id="path108227"
           inkscape:connector-curvature="0" /></g></g></g></svg>